<?xml version="1.0" encoding="utf-8"?>
<!-- Generator: Adobe Illustrator 22.1.0, SVG Export Plug-In . SVG Version: 6.00 Build 0)  -->
<svg version="1.1" id="Layer_1" xmlns="http://www.w3.org/2000/svg" xmlns:xlink="http://www.w3.org/1999/xlink" x="0px" y="0px"
	 viewBox="0 0 360 360" style="enable-background:new 0 0 360 360;" xml:space="preserve">
<style type="text/css">
	.st0{fill:#424142;}
	.st1{fill:#E61E25;}
</style>
<path class="st0" d="M118.1,87.5c13.4,0,26,2.5,37.7,7.6c11.8,5.1,22,12,30.8,20.7c8.8,8.8,15.7,19,20.7,30.8
	c5.1,11.8,7.6,24.3,7.6,37.7c0,13.4-2.5,26-7.6,37.7c-5.1,11.8-12,22-20.7,30.8c-8.8,8.8-19,15.7-30.8,20.7
	c-11.8,5.1-24.3,7.6-37.7,7.6s-26-2.5-37.7-7.6c-11.8-5.1-22-12-30.8-20.7c-8.8-8.8-15.7-19-20.7-30.8c-5.1-11.8-7.6-24.3-7.6-37.7
	c0-13.4,2.5-26,7.6-37.7c5.1-11.8,12-22,20.7-30.8c8.8-8.8,19-15.7,30.8-20.7C92.1,90,104.7,87.5,118.1,87.5z M159.5,184
	c0-5.7-1.1-11-3.2-16c-2.1-5-5-9.3-8.6-12.9c-3.6-3.6-7.9-6.5-12.9-8.6c-5-2.1-10.3-3.2-16-3.2c-5.7,0-11,1.1-16,3.2
	c-5,2.1-9.3,5-13,8.6c-3.7,3.6-6.6,7.9-8.8,12.9c-2.1,5-3.2,10.3-3.2,16c0,5.7,1.1,11,3.2,16c2.1,5,5.1,9.3,8.8,13
	c3.7,3.7,8,6.6,13,8.8c5,2.1,10.3,3.2,16,3.2c5.7,0,11-1.1,16-3.2c5-2.1,9.3-5.1,12.9-8.8c3.6-3.7,6.5-8,8.6-13
	C158.4,195,159.5,189.7,159.5,184z"/>
<path class="st0" d="M338.8,91.1v54.1h-37.1v132.7h-54.1V145.1h-37.3V91.1H338.8z"/>
<path class="st1" d="M75.2,136.4l-1.6,1.6l0,0.1c-4.7,5.1-8.7,11.1-11.6,17.8c-3,6.9-4.5,14.1-4.9,21.2l-0.1,0l-0.1,3
	c0,0.1,0,0.3,0,0.4l-4.9,158l111.4-111.9c0.6-0.6,1.2-1.2,1.7-1.7l1.5-1.5l0-0.1c4.7-5.1,8.7-11.1,11.6-17.8
	c3-6.9,4.5-14.1,4.9-21.2l0.1,0l0.1-3.2c0,0,0-0.1,0-0.1l4.9-158.1l-111.5,112C76.2,135.4,75.7,135.9,75.2,136.4z M99,171.7
	c5-11.6,18.5-17.1,30.1-12.1c11.7,5,17.1,18.5,12.1,30.1c-5,11.7-18.5,17.1-30.1,12.1C99.4,196.9,94,183.4,99,171.7z"/>
</svg>
